<?xml version="1.0" standalone="no"?>
<!DOCTYPE svg PUBLIC "-//W3C//DTD SVG 20010904//EN"
 "http://www.w3.org/TR/2001/REC-SVG-20010904/DTD/svg10.dtd">
<svg version="1.0" xmlns="http://www.w3.org/2000/svg"
 width="225.000000pt" height="225.000000pt" viewBox="0 0 225.000000 225.000000"
 preserveAspectRatio="xMidYMid meet">

<g transform="translate(0.000000,225.000000) scale(0.100000,-0.100000)"
fill="#000000" stroke="none">
<path d="M1464 1298 c-16 -18 -45 -70 -64 -115 -29 -69 -39 -83 -57 -83 -14 0
-23 -6 -23 -15 0 -8 7 -15 15 -15 20 0 19 -4 -7 -81 -17 -49 -34 -75 -65 -103
-36 -32 -44 -35 -49 -22 -9 24 4 111 26 169 11 27 17 54 14 59 -19 31 -50 -33
-66 -139 -9 -57 -16 -76 -34 -88 -21 -13 -23 -13 -29 5 -8 24 44 238 81 337
38 100 38 103 22 103 -30 0 -86 -165 -128 -371 -17 -89 13 -136 60 -94 15 14
18 14 30 0 19 -23 48 -18 75 11 27 29 31 20 15 -36 -11 -39 -4 -73 13 -67 7 2
12 17 13 33 1 30 60 247 75 275 6 11 27 18 66 21 32 3 59 4 61 3 1 -1 -9 -43
-23 -93 -33 -112 -31 -156 6 -160 15 -2 34 4 42 13 15 14 19 14 42 -1 17 -11
35 -14 60 -10 19 4 35 4 35 1 0 -4 -16 -59 -35 -122 -19 -64 -35 -126 -35
-139 0 -38 17 -28 24 14 10 52 55 189 79 237 11 22 32 55 48 72 37 42 46 91
25 132 -13 24 -23 31 -47 31 -57 0 -126 -55 -165 -133 -21 -41 -55 -78 -65
-71 -17 10 -9 73 17 141 45 120 48 113 -40 113 -42 0 -76 2 -76 5 0 8 67 137
80 155 9 11 10 5 5 -27 -7 -45 6 -59 23 -25 13 24 10 104 -4 109 -6 2 -24 -11
-40 -29z m283 -308 c-9 -72 -75 -135 -135 -128 -23 3 -27 7 -25 31 4 56 88
137 142 137 22 0 23 -3 18 -40z"/>
<path d="M255 1309 c-72 -20 -155 -127 -142 -181 4 -13 25 -37 48 -53 76 -55
109 -87 109 -106 0 -40 -127 -108 -203 -109 -30 0 -46 -4 -42 -10 3 -5 30 -10
59 -10 41 0 70 8 125 36 78 39 110 78 92 113 -12 21 -78 81 -90 81 -20 0 -61
51 -61 76 0 55 98 141 146 128 18 -5 54 20 43 30 -12 10 -58 13 -84 5z"/>
<path d="M1535 1199 c-8 -12 14 -31 30 -26 6 2 10 10 10 18 0 17 -31 24 -40 8z"/>
<path d="M393 1168 c2 -7 12 -13 22 -13 10 0 20 6 23 13 2 7 -6 12 -23 12 -17
0 -25 -5 -22 -12z"/>
<path d="M1253 1168 c2 -7 12 -13 22 -13 10 0 20 6 23 13 2 7 -6 12 -23 12
-17 0 -25 -5 -22 -12z"/>
<path d="M354 1063 c-23 -56 -41 -190 -28 -211 18 -28 51 -26 79 4 24 26 25
26 25 5 0 -11 5 -21 10 -21 10 0 76 68 158 160 16 19 33 32 37 28 4 -4 0 -46
-10 -93 -9 -48 -14 -89 -10 -93 7 -7 58 45 152 153 l52 60 -19 -60 c-39 -128
-35 -195 10 -195 11 0 20 -4 20 -8 0 -4 -15 -54 -34 -110 -21 -62 -31 -104
-25 -108 6 -3 13 -4 15 -1 9 8 62 156 75 209 13 48 16 51 75 78 83 37 154 106
154 148 0 57 -53 90 -129 79 -54 -7 -91 -34 -91 -65 l0 -25 23 21 c46 43 129
51 158 16 26 -32 -43 -119 -119 -151 -19 -8 -36 -12 -39 -9 -3 3 4 32 15 65
18 53 18 60 5 66 -21 7 -21 7 -39 -61 -36 -140 -36 -141 -45 -119 -13 33 -10
120 6 165 16 46 20 100 7 100 -22 0 -96 -68 -137 -126 -26 -36 -49 -63 -52
-60 -3 2 1 28 7 58 14 62 11 110 -8 116 -7 2 -49 -34 -93 -80 -85 -88 -87 -88
-57 9 11 38 3 73 -18 73 -10 0 -14 -13 -15 -42 -1 -67 -20 -111 -66 -152 -36
-32 -44 -35 -49 -22 -9 24 4 111 26 169 11 27 17 54 14 59 -11 17 -24 7 -40
-29z"/>
<path d="M2131 1062 c-20 -21 -49 -64 -63 -94 -24 -50 -59 -88 -80 -88 -16 0
-7 82 12 120 21 40 26 80 12 80 -5 0 -23 -31 -41 -70 -32 -68 -106 -160 -129
-160 -29 0 -24 42 25 203 3 9 0 17 -6 17 -33 0 -78 -202 -53 -239 14 -19 67 0
108 40 l31 30 11 -26 c13 -28 30 -32 58 -10 26 20 29 19 42 -10 16 -36 82 -35
135 1 49 33 41 42 -13 14 -69 -35 -121 -15 -107 42 4 16 16 28 30 32 13 3 43
26 66 51 32 35 41 53 39 73 -5 42 -34 40 -77 -6z m49 -10 c0 -4 -16 -23 -35
-42 -41 -40 -46 -31 -9 17 24 31 44 43 44 25z"/>
</g>
</svg>
