<svg id="Capa_1" enable-background="new 0 0 512 512" height="512" viewBox="0 0 512 512" width="512" xmlns="http://www.w3.org/2000/svg"><g><path d="m59.667 0v512h392.667v-512zm196.333 113c-43.332 0-78.586 35.253-78.586 78.585v30.022h-30v-30.022c0-59.874 48.712-108.585 108.586-108.585s108.585 48.711 108.585 108.585v30.022h-30v-30.022c0-43.332-35.253-78.585-78.585-78.585zm0 60c-10.248 0-18.586 8.337-18.586 18.585v30.022h-30v-30.022c0-26.79 21.796-48.585 48.586-48.585s48.586 21.795 48.586 48.585v30.022h-30v-30.022c0-10.248-8.338-18.585-18.586-18.585zm108.667 91.333v30h-217.334v-30zm0 64v30h-217.334v-30zm-108.667 64v30h-108.667v-30z"/></g></svg>